# xmcd
#
# Track frame offsets: 
#        150
#        17019
#        29026
#        47370
#        65227
#        82183
#        97489
#        109721
#        128178
#        142772
#        156241
#        169035
#        204816
#
# Disc length: 2957 seconds
#
# Revision: 0
# Processed by: cddbd v1.5.2PL0 Copyright (c) Steve Scherf et al.
# Submitted via: ExactAudioCopy v0.95b3
#
DISCID=b30b8b0d
DTITLE=Emin - Still
DYEAR=2006
DGENRE=Blues
TTITLE0=Still
TTITLE1=Welcome To My World
TTITLE2=Up To You
TTITLE3=And I Love You So
TTITLE4=Without You
TTITLE5=It's Impossible
TTITLE6=Feel
TTITLE7=Until It's Time For You To Go
TTITLE8=It's Over
TTITLE9=Just
TTITLE10=Love Letters
TTITLE11=Tonight
TTITLE12=Still (Alternative Version)
EXTD=
EXTT0=
EXTT1=
EXTT2=
EXTT3=
EXTT4=
EXTT5=
EXTT6=
EXTT7=
EXTT8=
EXTT9=
EXTT10=
EXTT11=
EXTT12=
PLAYORDER=
